# xmcd CD database file
#
# Track frame offsets:
#	150
#	14422
#	27244
#	39014
#	55209
#	65917
#	80869
#	92719
#	107525
#	119223
#	131480
#	145956
#	158611
#	173946
#	185073
#	201728
#
# Disc length: 2863 seconds
#
# Revision: 0
# Processed by: cddbd v1.5.2PL0 Copyright (c) Steve Scherf et al.
# Submitted via: CDex 1.92
#
DISCID=ed0b2d10
DTITLE=Elmore James - Big Box
DYEAR=2012
DGENRE=Blues
TTITLE0=You Know You're Wrong
TTITLE1=Round House Boogie
TTITLE2=Rollin' and Tumblin'
TTITLE3=I Need You
TTITLE4=Hawaiian Boogie
TTITLE5=Stranger Blues
TTITLE6=So Unkind
TTITLE7=1839 Blues
TTITLE8=Poor Little Angel Child
TTITLE9=Make My Dreams Come True
TTITLE10=Dust My Blues
TTITLE11=Dust My Broom
TTITLE12=Everyday I Have The Blues
TTITLE13=Coming Home
TTITLE14=I Gotta Go Now
TTITLE15=Pickin' the Blues
EXTD=YEAR: 2012
EXTT0=
EXTT1=
EXTT2=
EXTT3=
EXTT4=
EXTT5=
EXTT6=
EXTT7=
EXTT8=
EXTT9=
EXTT10=
EXTT11=
EXTT12=
EXTT13=
EXTT14=
EXTT15=
PLAYORDER=
